<?xml version="1.0"?>
<!DOCTYPE svg PUBLIC "-//W3C//DTD SVG 1.1//EN" "http://www.w3.org/Graphics/SVG/1.1/DTD/svg11.dtd">
<svg width="275.4mm" height="35.400000000000006mm" viewBox="0 0 275.4 35.400000000000006" xmlns="http://www.w3.org/2000/svg" version="1.1">
<g id="Sketch" transform="translate(137.700000,17.700000) scale(1,-1)">
<path id="Sketch_w0000"  d="M -135.0 -10.000000000000012 A 5 5 0 0 1 -130 -15L 130.0 -15.000000000000002 A 5 5 0 0 1 135 -10L 134.99999999999997 10.000000000000016 A 5 5 0 0 1 130 15L -130.0 15.000000000000002 A 5 5 0 0 1 -135 10L -135.0 -10.000000000000012 " stroke="#000000" stroke-width="0.35 px" style="stroke-width:0.35;stroke-miterlimit:4;stroke-dasharray:none;fill:none;fill-rule: evenodd "/>
<path id="Sketch_w0001"  d="M -125.0 4.15 A 4.15 4.15 0 0 1 -125 -4.15L -115.0 -4.15 A 4.15 4.15 0 1 1 -115 4.15L -125.0 4.15 " stroke="#000000" stroke-width="0.35 px" style="stroke-width:0.35;stroke-miterlimit:4;stroke-dasharray:none;fill:none;fill-rule: evenodd "/>
<path id="Sketch_w0002"  d="M 115.0 4.15 A 4.15 4.15 0 1 1 115 -4.15L 125.0 -4.15 A 4.15 4.15 0 1 1 125 4.15L 115.0 4.15 " stroke="#000000" stroke-width="0.35 px" style="stroke-width:0.35;stroke-miterlimit:4;stroke-dasharray:none;fill:none;fill-rule: evenodd "/>
<title>b'Sensor_board_dimensions'</title>
</g>
</svg>